<svg id="FINAL" xmlns="http://www.w3.org/2000/svg" xmlns:xlink="http://www.w3.org/1999/xlink" viewBox="0 0 400 700">
<defs><style>.cls-1,.cls-5{fill:none;}.cls-1{stroke:#231f20;stroke-miterlimit:10;}.cls-2{fill:url(#linear-gradient);}.cls-3{fill:url(#linear-gradient-2);}.cls-4{fill:url(#linear-gradient-3);}.cls-6{fill:url(#linear-gradient-4);}.cls-7{fill:url(#linear-gradient-5);}.cls-8{fill:url(#linear-gradient-6);}.cls-9{isolation:isolate;}.cls-10{fill:#043760;}.cls-11{fill:url(#linear-gradient-7);}</style><linearGradient id="linear-gradient" x1="293.76" y1="431.74" x2="282.01" y2="645.68" gradientTransform="matrix(1, -0.05, 0.05, 1, -19.47, -35.58)" gradientUnits="userSpaceOnUse"><stop offset="0" stop-color="#84beec"/><stop offset="0" stop-color="#83bdeb"/><stop offset="0.18" stop-color="#3d83b4"/><stop offset="0.3" stop-color="#115f91"/><stop offset="0.36" stop-color="#005184"/><stop offset="0.38" stop-color="#034d7e"/><stop offset="0.45" stop-color="#0c426a"/><stop offset="0.54" stop-color="#12395c"/><stop offset="0.64" stop-color="#163453"/><stop offset="0.81" stop-color="#173351"/></linearGradient><linearGradient id="linear-gradient-2" x1="297.42" y1="434.83" x2="295.8" y2="511.59" gradientTransform="matrix(1, -0.05, 0.05, 1, -19.47, -35.58)" gradientUnits="userSpaceOnUse"><stop offset="0" stop-color="#115c8c"/><stop offset="0.48" stop-color="#18376b"/><stop offset="0.6" stop-color="#173566"/><stop offset="0.74" stop-color="#142e58"/><stop offset="0.9" stop-color="#0f2240"/><stop offset="0.92" stop-color="#0e203c"/></linearGradient><linearGradient id="linear-gradient-3" x1="334.76" y1="540.71" x2="415.16" y2="456.23" gradientTransform="matrix(0.99, 0.08, 0.08, -1.02, -36.93, 772.22)" gradientUnits="userSpaceOnUse"><stop offset="0.05" stop-color="#5387aa"/><stop offset="0.13" stop-color="#316592"/><stop offset="0.22" stop-color="#164a7f"/><stop offset="0.29" stop-color="#063a73"/><stop offset="0.35" stop-color="#00346f"/><stop offset="0.74" stop-color="#013169"/><stop offset="0.97" stop-color="#061d3d"/></linearGradient><linearGradient id="linear-gradient-4" x1="207.11" y1="227.16" x2="333.63" y2="466.3" gradientTransform="translate(16.42 -59.32) rotate(2.29)" gradientUnits="userSpaceOnUse"><stop offset="0.05" stop-color="#5387aa"/><stop offset="0.42" stop-color="#00346f"/><stop offset="0.74" stop-color="#013169"/><stop offset="0.97" stop-color="#061d3d"/></linearGradient><linearGradient id="linear-gradient-5" x1="331.35" y1="487.16" x2="332.38" y2="487.97" gradientTransform="matrix(1, 0, 0, -1, 0, 791.89)" xlink:href="#linear-gradient-3"/><linearGradient id="linear-gradient-6" x1="332.44" y1="487.01" x2="332.85" y2="487.33" gradientTransform="matrix(1, 0, 0, -1, 0, 791.89)" xlink:href="#linear-gradient-3"/><linearGradient id="linear-gradient-7" x1="283.66" y1="473.89" x2="267.77" y2="592.88" gradientTransform="matrix(1, -0.05, 0.05, 1, -19.54, -35.75)" gradientUnits="userSpaceOnUse"><stop offset="0.03" stop-color="#fff"/><stop offset="0.07" stop-color="#f8fbfe"/><stop offset="0.13" stop-color="#e4f1fd"/><stop offset="0.2" stop-color="#c3e1fb"/><stop offset="0.27" stop-color="#96cbf8"/><stop offset="0.29" stop-color="#8cc6f7"/><stop offset="0.48" stop-color="#6399bf"/><stop offset="0.59" stop-color="#5387aa"/><stop offset="0.72" stop-color="#336793"/><stop offset="0.91" stop-color="#00346f"/></linearGradient></defs><g id="Get_Each_Piece" data-name="Get Each Piece"><line class="cls-1" x1="445.09" y1="433.68" x2="445.08" y2="433.68"/><line class="cls-1" x1="156.6" y1="486.79" x2="156.59" y2="486.78"/><path class="cls-2" d="M444.67,434.35c-2,4-4.55,8.9-7.83,14.25a192.3,192.3,0,0,1-11.76,16.85s-11.27,14.94-20,21.06a25.26,25.26,0,0,1-4.54,2.4,15.27,15.27,0,0,1-1.62.52,13.78,13.78,0,0,1-1.92.34,69,69,0,0,1-8.73.74c-5.39-.06-11.84-.13-19.39-2.93a49.37,49.37,0,0,1-15.7-9.64c-4.39-3.86-4.91-5.62-10.85-10.77a72.68,72.68,0,0,0-9.39-7.06c-11.06-6.65-23.13-5.87-25.45-5.73-12.63.81-15,6.72-31.86,13.72a114.17,114.17,0,0,1-35.28,8.39c-10.35.79-26,2-43.5-4.21-7.12-2.52-23.25-8.23-33.47-23a99.11,99.11,0,0,1-6.89-12.38,162.56,162.56,0,0,1-9.82-24.6A98,98,0,0,0,181,436.09c16.7,6.83,30.87,7.08,40,7.16,33.29.32,64-12.43,74.87-18.15a90.88,90.88,0,0,1,19.34-7.61A57.31,57.31,0,0,1,330.26,415a52,52,0,0,1,21.86,4.57c10,4.5,10.3,8.53,23.89,16.19a81.66,81.66,0,0,0,12.51,6c5.75,2.12,19.06,7,34.88,3.25A52.89,52.89,0,0,0,444.67,434.35Z"/><path class="cls-3" d="M457.85,392.33c-.54,3.15-1.24,6.73-2.18,10.65a158.91,158.91,0,0,1-7.45,23.09c-1.52,3.71-3,7-4.46,9.91a47.87,47.87,0,0,1-5.61,3.51h0a91.45,91.45,0,0,1-10.57,4.82c-3.89,1.39-12.34,2.93-23.38,2.74a63.14,63.14,0,0,1-18.31-4.39,53.18,53.18,0,0,1-7.66-3.74,65.76,65.76,0,0,1-11.66-8.22A68.9,68.9,0,0,0,356,422.32l-1.58-1c-11.33-6.64-25.82-5.67-28.25-5.48a58.62,58.62,0,0,0-6.33.83c-13.86,2.55-22.62,8.43-31,12.73-25.89,13.23-53.69,14.1-65,14.46h0c-11.32.34-34.58-.66-57.47-15.08a96.69,96.69,0,0,1-19.73-16.52c-.18-.56-.42-1.38-.71-2.37-1.22-4.22-2.13-8-2.81-11.26-.33-1.55-.72-3.55-1.13-5.89,13.2,8.79,36.58,21.51,67.49,23.34a140.89,140.89,0,0,0,29.59-1.54c35.16-5,73.62-21.75,78.68-24,0,0,14-6.17,26.5-6.28a59.48,59.48,0,0,1,19.42,3.39l.35.13c12,4.73,25.88,13.89,35.25,17.55,17.77,6.93,35.92.36,41.41-1.93A58.57,58.57,0,0,0,457.85,392.33Z"/></g><g id="Layer_3" data-name="Layer 3"><path class="cls-4" d="M400.12,312.85a82.57,82.57,0,0,1-16.23-16.64A37.15,37.15,0,0,1,376,273.76a44.56,44.56,0,0,1,1.49-12,47.74,47.74,0,0,1,7.68-16c-5.9-.36-19.54-.33-31,8.08-16.79,12.31-22.18,37.61-11.46,61.77v.11h0c2.05-.57,4.71-1.23,7.84-1.82a91.63,91.63,0,0,1,10.94-1.39c.48,0,1.82-.1,3.67-.13a91.17,91.17,0,0,1,22.7,2.22c1.64.38,4.47,1.1,7.73,2.08,1.59.47,4,1.22,7.11,2.15,5.35,1.59,5.87,1.63,6,1.42C409.08,319.52,405,316.8,400.12,312.85Z"/><line class="cls-5" x1="157.98" y1="313.03" x2="415.69" y2="314.62"/></g><g id="TOP_SAIL" data-name="TOP SAIL"><line class="cls-1" x1="167.68" y1="398.69" x2="167.67" y2="398.69"/><path class="cls-6" d="M365.51,233.19c-4,1.25-25.63,8.45-35.62,30.37-10.11,22.18-1.85,45.28.4,51.55.58,1.62,1.11,2.93,1.48,3.81a231.83,231.83,0,0,0-172.11,1.2c4.77-13.72,19.28-49.6,56-75.59,49-34.65,101.29-26.09,112.46-24A145.39,145.39,0,0,1,365.51,233.19Z"/><path class="cls-7" d="M332.41,304c-.33.18-.66.38-1,.58"/><path class="cls-8" d="M332.9,305.39c-.17-.46-.34-.91-.49-1.37"/></g><g id="MARINE_DESIGN" data-name="MARINE DESIGN"><g class="cls-9"><path class="cls-10" d="M153.23,337.55l7.7,14.55,7.87-14.55h6.41v26.59h-5V344.07L163,357.32h-4.34l-7.14-13.25v20.07h-5.07V337.55Z"/><path class="cls-10" d="M195.8,337.55l10.71,26.59h-5.12l-2.9-7H188l-2.84,7h-5l10.71-26.59Zm-2.58,5.36-3.62,10h7.24Z"/><path class="cls-10" d="M220.79,337.55q11.69,0,11.69,7.83,0,5.65-6.31,7.64l7.14,11.12h-5.74l-6.52-10.35c-.52,0-1.26,0-2.23,0-.48,0-1.24,0-2.27-.1v10.4h-5.07V337.55Zm-4.24,11.89a21.53,21.53,0,0,0,2.48.15,18.66,18.66,0,0,0,6.13-.8,3.18,3.18,0,0,0,2.2-3.31,2.87,2.87,0,0,0-1.89-2.93,14.49,14.49,0,0,0-5.2-.75h-3.72Z"/><path class="cls-10" d="M243.91,337.55v26.59h-5.07V337.55Z"/><path class="cls-10" d="M257.52,337.55l13.76,19.72V337.55h5.12v26.59h-6.15l-13.71-19.78v19.78h-5.07V337.55Z"/></g><g class="cls-9"><path class="cls-10" d="M283.6,337.55h18.68v4.25H288.67v6.67h12.05v4.31H288.67v7.06h13.61v4.3H283.6Z"/></g><g class="cls-9"><path class="cls-10" d="M323.09,364.14h-10V337.55h10a14.72,14.72,0,0,1,7.19,1.62,11.41,11.41,0,0,1,4.56,4.47,15.46,15.46,0,0,1,1.65,7.2,14.28,14.28,0,0,1-1.65,7.16,11.07,11.07,0,0,1-4.53,4.54A14.83,14.83,0,0,1,323.09,364.14Zm-6.62-2.8h6.36a10.56,10.56,0,0,0,5.57-1.29,8.81,8.81,0,0,0,3.28-3.6,12.33,12.33,0,0,0,1-5.61,12.57,12.57,0,0,0-1.18-5.51,9.8,9.8,0,0,0-3.06-3.58,10.18,10.18,0,0,0-5.64-1.45h-6.36Z"/><path class="cls-10" d="M341.92,364.14V337.55h16.66v2.71H345.34V349h12.21v2.75H345.34v9.58h13.24v2.8Z"/><path class="cls-10" d="M377.31,360.2a3.3,3.3,0,0,0,2.07-3.07,3.24,3.24,0,0,0-1.66-2.85,22.59,22.59,0,0,0-4.76-2.13l-1.19-.44a21.26,21.26,0,0,1-5.79-3,5.23,5.23,0,0,1-1.91-4.31A6.31,6.31,0,0,1,366.6,339a9.9,9.9,0,0,1,3.16-1.52,14.39,14.39,0,0,1,3.88-.46,22.28,22.28,0,0,1,7.81,1.83l-1,2.86a20.06,20.06,0,0,0-6.42-1.55,9.19,9.19,0,0,0-4.73,1,3.24,3.24,0,0,0-1.74,2.92,3.06,3.06,0,0,0,.91,2.23,6.5,6.5,0,0,0,2,1.42c.74.34,1.78.77,3.13,1.29.55.22,1.05.4,1.5.53a40.48,40.48,0,0,1,4.21,1.81A8.24,8.24,0,0,1,382,353.5a5.36,5.36,0,0,1,1.08,3.44,6.21,6.21,0,0,1-3.21,5.65,14.83,14.83,0,0,1-7.81,1.94,16.56,16.56,0,0,1-3.93-.39q-1.55-.39-4.71-1.4l1.19-3.1a23.75,23.75,0,0,0,7.56,1.6A11.5,11.5,0,0,0,377.31,360.2Z"/><path class="cls-10" d="M389.16,337.55h3.36v26.59h-3.36Z"/><path class="cls-10" d="M420.77,341.8a19.51,19.51,0,0,0-3.75-1.3,16.39,16.39,0,0,0-4-.53,10.68,10.68,0,0,0-5.62,1.54,9.7,9.7,0,0,0-3.75,3.92,11.85,11.85,0,0,0-1.19,5.37,11,11,0,0,0,1.45,5.68,10,10,0,0,0,3.88,3.74,14.1,14.1,0,0,0,2.85,1.14,11.53,11.53,0,0,0,3,.36,12,12,0,0,0,3.49-.53,9.1,9.1,0,0,0,3-1.45v-7.06H412v-2.61H423.3v10.69a13,13,0,0,1-4,2.46,17.37,17.37,0,0,1-6.88,1.31,13.86,13.86,0,0,1-7-1.82,12.75,12.75,0,0,1-4.86-4.86,13.35,13.35,0,0,1-1.81-6.81,13.84,13.84,0,0,1,1.89-7.26,13,13,0,0,1,5-4.83,14.23,14.23,0,0,1,7.14-1.79,19.82,19.82,0,0,1,5,.58,19.16,19.16,0,0,1,4.37,1.74Z"/><path class="cls-10" d="M428.84,337.55h4.34l15.47,22.29V337.55h3.52v26.59h-4.4l-15.52-22.39v22.39h-3.41Z"/></g></g><g id="Layer_8" data-name="Layer 8"><path class="cls-11" d="M405,486.51c-1.25,1-3.15,2.57-5.51,4.36-12.67,9.6-42.1,29.07-82.51,33.59a160.24,160.24,0,0,1-55.25-3.36A152.63,152.63,0,0,1,224.45,507c-4.84-2.68-9-5.31-10.22-6.07a169.61,169.61,0,0,1-30.42-25.12,163.79,163.79,0,0,1-12.17-14.39c-4.52-6-8.45-12.09-8.3-12.2s2.3,3.4,4.33,5.56a79.59,79.59,0,0,0,23.5,14.9c29.78,12.19,58.45,4.95,58.45,4.95a115.1,115.1,0,0,0,27.94-9.1l3.13-1.55c4-2,6.9-3.49,7.22-3.66,17.59-9,32.78-5.71,32.78-5.71a41.32,41.32,0,0,1,16.11,7.53c4.19,3.07,10,8.46,16.08,13.87.54.48,1.92,1.7,3.81,3.19l1.41,1.07c15,11.19,33.35,9.61,33.35,9.61A46.3,46.3,0,0,0,405,486.51Z"/></g></svg>